<svg xmlns="http://www.w3.org/2000/svg" xmlns:xlink="http://www.w3.org/1999/xlink" width="200" zoomAndPan="magnify" viewBox="0 0 150 37.5" height="50" preserveAspectRatio="xMidYMid meet" version="1.0"><defs><g/></defs><g fill="#151f28" fill-opacity="1"><g transform="translate(4.888867, 14.951008)"><g><path d="M 4.539062 0 L 4.539062 -0.84375 C 4.539062 -4.601562 1.574219 -3.867188 1.574219 -4.523438 C 1.574219 -5.019531 3.554688 -5.019531 3.789062 -5.019531 L 5.050781 -5.019531 C 7.875 -5.019531 6.363281 -2.136719 6.363281 0 L 9.667969 0 C 9.667969 -2.699219 10.105469 -5.269531 10.089844 -8.375 C 10.089844 -8.375 10.074219 -10.621094 9.152344 -10.917969 C 9.152344 -10.917969 6.363281 -10.917969 6.363281 -10.917969 C 6.363281 -10.917969 6.972656 -9.964844 6.972656 -7.875 C 6.972656 -6.144531 6.191406 -5.675781 5.050781 -5.675781 L 3.210938 -5.675781 C 1.964844 -5.675781 1.621094 -5.691406 1.621094 -6.019531 C 1.621094 -6.753906 4.179688 -6.113281 4.179688 -9.386719 C 4.179688 -9.386719 4.179688 -10.292969 3.851562 -10.917969 C 3.851562 -10.917969 0.46875 -10.917969 0.46875 -10.917969 C 0.46875 -10.917969 1.230469 -9.964844 1.230469 -7.875 C 1.230469 -4.914062 0.46875 -3.445312 0.46875 0 Z M 4.539062 0 "/></g></g></g><g fill="#151f28" fill-opacity="1"><g transform="translate(15.444968, 14.951008)"><g><path d="M 0.46875 -1.699219 C 0.46875 -0.640625 1.277344 0.15625 2.652344 0.15625 C 4.445312 0.15625 5.113281 -0.40625 5.113281 -0.40625 C 5.113281 -0.40625 4.195312 -0.75 4.195312 -1.824219 C 4.195312 -3.398438 5.488281 -4.367188 5.925781 -5.394531 C 5.957031 -3.945312 5.441406 -2.011719 5.441406 -1.199219 C 5.441406 -0.5 5.722656 0 6.660156 0 L 8.96875 0 L 8.96875 -0.140625 C 8.96875 -1.152344 8.5 -1.808594 8.5 -4.570312 C 8.5 -6.425781 7.234375 -7.796875 5.253906 -7.796875 L 3.210938 -7.796875 C 1.308594 -7.796875 0.46875 -6.925781 0.46875 -5.988281 C 0.46875 -5.113281 1.011719 -4.867188 1.667969 -4.867188 C 1.667969 -4.867188 2.667969 -4.867188 3.929688 -5.519531 C 3.929688 -5.957031 3.367188 -7.15625 4.726562 -7.15625 C 5.332031 -7.15625 5.660156 -6.800781 5.800781 -6.269531 C 5.347656 -4.773438 0.46875 -4.617188 0.46875 -1.699219 Z M 0.46875 -1.699219 "/></g></g></g><g fill="#151f28" fill-opacity="1"><g transform="translate(24.878411, 14.951008)"><g><path d="M 0.46875 -0.875 C 0.46875 -0.296875 0.859375 0 1.511719 0 L 6.722656 0 C 7.59375 0 9.042969 -0.171875 9.042969 -1.824219 C 9.042969 -4.632812 3.898438 -4.929688 3.898438 -6.550781 C 3.898438 -6.988281 4.445312 -7.15625 4.914062 -7.15625 C 5.425781 -7.15625 5.894531 -6.972656 5.894531 -6.613281 C 5.910156 -6.066406 5.582031 -5.691406 5.582031 -5.691406 C 5.582031 -5.691406 6.144531 -5.144531 7.25 -5.144531 C 8.3125 -5.144531 8.96875 -5.644531 8.96875 -6.441406 C 8.96875 -7.6875 7.78125 -7.8125 6.722656 -7.796875 C 6.457031 -7.796875 6.207031 -7.796875 5.988281 -7.796875 L 2.386719 -7.796875 C 1.371094 -7.796875 0.5 -7.3125 0.5 -6.113281 C 0.5 -3.726562 5.269531 -3.601562 5.269531 -1.667969 C 5.269531 -0.984375 4.960938 -0.640625 4.570312 -0.640625 C 4.101562 -0.640625 3.757812 -1.292969 3.757812 -1.933594 C 3.757812 -3.195312 2.621094 -3.476562 1.699219 -3.460938 C 1.058594 -3.460938 0.515625 -3.335938 0.515625 -3.320312 C 0.515625 -3.320312 0.765625 -3.023438 0.765625 -2.464844 C 0.765625 -1.761719 0.46875 -1.433594 0.46875 -0.875 Z M 0.46875 -0.875 "/></g></g></g><g fill="#151f28" fill-opacity="1"><g transform="translate(34.389816, 14.951008)"><g><path d="M 0.46875 -1.699219 C 0.46875 -0.640625 1.277344 0.15625 2.652344 0.15625 C 4.445312 0.15625 5.113281 -0.40625 5.113281 -0.40625 C 5.113281 -0.40625 4.195312 -0.75 4.195312 -1.824219 C 4.195312 -3.398438 5.488281 -4.367188 5.925781 -5.394531 C 5.957031 -3.945312 5.441406 -2.011719 5.441406 -1.199219 C 5.441406 -0.5 5.722656 0 6.660156 0 L 8.96875 0 L 8.96875 -0.140625 C 8.96875 -1.152344 8.5 -1.808594 8.5 -4.570312 C 8.5 -6.425781 7.234375 -7.796875 5.253906 -7.796875 L 3.210938 -7.796875 C 1.308594 -7.796875 0.46875 -6.925781 0.46875 -5.988281 C 0.46875 -5.113281 1.011719 -4.867188 1.667969 -4.867188 C 1.667969 -4.867188 2.667969 -4.867188 3.929688 -5.519531 C 3.929688 -5.957031 3.367188 -7.15625 4.726562 -7.15625 C 5.332031 -7.15625 5.660156 -6.800781 5.800781 -6.269531 C 5.347656 -4.773438 0.46875 -4.617188 0.46875 -1.699219 Z M 0.46875 -1.699219 "/></g></g></g><g fill="#151f28" fill-opacity="1"><g transform="translate(43.823257, 14.951008)"><g><path d="M 3.929688 0 C 3.929688 -3.898438 4.054688 -7.140625 5.503906 -7.140625 C 6.582031 -7.140625 6.472656 -5.238281 6.472656 -4.710938 C 6.472656 -2.839844 5.800781 -2.324219 5.800781 -1.214844 C 5.800781 -0.265625 6.550781 0.15625 7.53125 0.15625 C 7.53125 0.15625 9.261719 0.15625 9.667969 -0.625 C 9.058594 -0.625 9.714844 -2.605469 9.714844 -4.507812 C 9.714844 -6.628906 8.171875 -7.796875 6.769531 -7.796875 L 5.238281 -7.796875 C 4.601562 -7.796875 4.101562 -7.625 3.695312 -7.375 C 3.554688 -7.578125 3.414062 -7.71875 3.257812 -7.796875 C 3.257812 -7.796875 0.46875 -7.796875 0.46875 -7.796875 C 0.46875 -7.796875 1.074219 -7.15625 1.074219 -5.769531 C 1.074219 -3.789062 0.46875 -2.292969 0.46875 0 Z M 3.929688 0 "/></g></g></g><g fill="#151f28" fill-opacity="1"><g transform="translate(54.005137, 14.951008)"><g/></g></g><g fill="#151f28" fill-opacity="1"><g transform="translate(57.123631, 14.951008)"><g><path d="M 0.46875 -1.824219 C 0.46875 -1.074219 0.796875 0 2.011719 0 L 7.328125 0 C 8.453125 0 10.152344 -0.609375 10.152344 -2.589844 C 10.152344 -3.757812 9.464844 -4.773438 7.890625 -4.773438 C 6.316406 -4.773438 6.378906 -3.554688 6.378906 -3.554688 C 6.378906 -3.554688 6.894531 -3.085938 6.894531 -1.902344 C 6.894531 -1.089844 6.519531 -0.625 5.878906 -0.625 C 4.523438 -0.625 3.820312 -2.808594 3.820312 -5.300781 C 3.820312 -9.199219 4.382812 -10.292969 5.363281 -10.292969 C 6.066406 -10.292969 6.503906 -9.808594 6.503906 -9.199219 C 6.503906 -8.34375 5.988281 -8.125 5.988281 -8.125 C 5.988281 -8.125 6.144531 -6.535156 7.828125 -6.535156 C 9.199219 -6.535156 10.121094 -7.453125 10.121094 -8.75 C 10.121094 -10.714844 8.65625 -10.917969 7.296875 -10.917969 C 7.296875 -10.917969 0.46875 -10.917969 0.46875 -10.917969 C 0.46875 -10.917969 1.230469 -9.964844 1.230469 -7.875 C 1.230469 -4.914062 0.46875 -3.195312 0.46875 -1.824219 Z M 0.46875 -1.824219 "/></g></g></g><g fill="#151f28" fill-opacity="1"><g transform="translate(67.726509, 14.951008)"><g><path d="M 0.46875 -1.324219 C 0.46875 -0.78125 0.703125 0 1.574219 0 L 6.894531 0 C 7.703125 0 8.9375 -0.453125 8.9375 -1.871094 C 8.9375 -2.730469 8.4375 -3.460938 7.3125 -3.460938 C 6.160156 -3.460938 5.425781 -2.792969 5.425781 -2.792969 C 5.425781 -2.792969 5.800781 -2.449219 5.800781 -1.574219 C 5.800781 -1 5.535156 -0.65625 5.066406 -0.65625 C 4.085938 -0.65625 3.570312 -2.042969 3.570312 -3.835938 C 3.570312 -4.101562 3.585938 -4.335938 3.585938 -4.554688 L 4.273438 -4.554688 C 5.316406 -4.554688 6.832031 -4.554688 7.25 -4.554688 C 8.25 -4.554688 8.921875 -4.960938 8.921875 -5.878906 C 8.921875 -7.3125 7.859375 -7.796875 6.878906 -7.796875 C 6.878906 -7.796875 0.46875 -7.796875 0.46875 -7.796875 C 0.46875 -7.796875 1.027344 -7.109375 1.027344 -5.582031 C 1.027344 -3.445312 0.46875 -2.324219 0.46875 -1.324219 Z M 3.617188 -5.207031 C 3.742188 -6.832031 4.117188 -7.140625 4.695312 -7.140625 C 5.191406 -7.140625 5.519531 -6.441406 5.519531 -6.003906 C 5.519531 -5.222656 4.898438 -5.207031 4.289062 -5.207031 C 4.273438 -5.207031 4.242188 -5.207031 4.226562 -5.207031 Z M 3.617188 -5.207031 "/></g></g></g><g fill="#151f28" fill-opacity="1"><g transform="translate(77.128771, 14.951008)"><g><path d="M 0.46875 0 L 3.929688 0 C 3.929688 -3.898438 4.054688 -7.140625 5.503906 -7.140625 C 6.582031 -7.140625 6.472656 -5.238281 6.472656 -4.710938 C 6.472656 -2.839844 5.800781 -2.324219 5.800781 -1.214844 C 5.800781 -0.265625 6.550781 0.15625 7.53125 0.15625 C 7.53125 0.15625 9.261719 0.15625 9.667969 -0.625 C 9.058594 -0.625 9.714844 -2.605469 9.714844 -4.507812 C 9.714844 -5.332031 9.980469 -7.140625 11.117188 -7.140625 C 12.195312 -7.140625 12.085938 -5.238281 12.085938 -4.710938 C 12.085938 -2.839844 11.414062 -2.324219 11.414062 -1.214844 C 11.414062 -0.265625 12.164062 0.15625 13.144531 0.15625 C 13.144531 0.15625 14.878906 0.15625 15.28125 -0.625 C 14.675781 -0.625 15.328125 -2.605469 15.328125 -4.507812 C 15.328125 -6.628906 13.785156 -7.796875 12.382812 -7.796875 L 10.855469 -7.796875 C 9.886719 -7.796875 9.246094 -7.421875 8.765625 -6.957031 C 8.203125 -7.5 7.46875 -7.796875 6.769531 -7.796875 L 5.238281 -7.796875 C 4.601562 -7.796875 4.101562 -7.625 3.695312 -7.375 C 3.554688 -7.578125 3.414062 -7.71875 3.257812 -7.796875 C 3.257812 -7.796875 0.46875 -7.796875 0.46875 -7.796875 C 0.46875 -7.796875 1.074219 -7.15625 1.074219 -5.769531 C 1.074219 -3.789062 0.46875 -2.292969 0.46875 0 Z M 0.46875 0 "/></g></g></g><g fill="#151f28" fill-opacity="1"><g transform="translate(92.923941, 14.951008)"><g><path d="M 4.070312 0 C 4.070312 -1.230469 3.757812 -1.902344 3.757812 -3.320312 C 3.757812 -4.554688 4.117188 -5.019531 4.117188 -6.363281 C 4.117188 -6.363281 4.117188 -7.4375 3.398438 -7.796875 C 3.398438 -7.796875 0.609375 -7.796875 0.609375 -7.796875 C 0.609375 -7.796875 1.214844 -7.15625 1.214844 -5.769531 C 1.214844 -3.789062 0.609375 -2.292969 0.609375 0 Z M 2.214844 -8.609375 C 3.164062 -8.609375 3.945312 -9.152344 3.945312 -9.839844 C 3.945312 -10.527344 3.164062 -11.070312 2.214844 -11.070312 C 1.246094 -11.070312 0.46875 -10.527344 0.46875 -9.839844 C 0.46875 -9.152344 1.246094 -8.609375 2.214844 -8.609375 Z M 2.214844 -8.609375 "/></g></g></g><g fill="#151f28" fill-opacity="1"><g transform="translate(97.508123, 14.951008)"><g><path d="M 3.929688 0 C 3.929688 -2.792969 3.617188 -2.855469 3.617188 -4.976562 C 3.617188 -6.816406 3.976562 -8.375 3.976562 -9.542969 C 3.976562 -9.542969 3.976562 -11.148438 3.257812 -11.695312 C 3.257812 -11.695312 0.46875 -11.695312 0.46875 -11.695312 C 0.46875 -11.695312 1.074219 -10.746094 1.074219 -8.65625 C 1.074219 -5.691406 0.46875 -3.445312 0.46875 0 Z M 3.929688 0 "/></g></g></g><g fill="#151f28" fill-opacity="1"><g transform="translate(101.951977, 14.951008)"><g/></g></g><g fill="#151f28" fill-opacity="1"><g transform="translate(105.070472, 14.951008)"><g><path d="M 4.460938 0 L 4.460938 -1.355469 C 4.460938 -3.664062 7.078125 -3.070312 7.078125 -4.648438 C 7.078125 -5.863281 4.976562 -5.941406 4.976562 -7.796875 C 4.976562 -8.671875 5.519531 -10.292969 6.066406 -10.292969 C 7.375 -10.292969 7.53125 -5.347656 7.53125 0 L 11.195312 0 C 11.195312 -3.023438 10.605469 -10.917969 6.238281 -10.917969 L 5.957031 -10.917969 C 4.445312 -10.917969 1.933594 -9.277344 1.933594 -7.09375 C 1.933594 -5.066406 3.539062 -4.898438 4.851562 -4.882812 C 5.128906 -4.882812 5.410156 -4.898438 5.644531 -4.898438 C 6.128906 -4.898438 6.457031 -4.867188 6.457031 -4.632812 C 6.457031 -3.929688 0.46875 -4.632812 0.46875 -0.5 L 0.46875 0 Z M 4.460938 0 "/></g></g></g><g fill="#151f28" fill-opacity="1"><g transform="translate(116.733642, 14.951008)"><g><path d="M 0.46875 -1.324219 C 0.46875 -0.78125 0.703125 0 1.574219 0 L 6.894531 0 C 7.703125 0 8.9375 -0.453125 8.9375 -1.871094 C 8.9375 -2.730469 8.4375 -3.460938 7.3125 -3.460938 C 6.160156 -3.460938 5.425781 -2.792969 5.425781 -2.792969 C 5.425781 -2.792969 5.800781 -2.449219 5.800781 -1.574219 C 5.800781 -1 5.535156 -0.65625 5.066406 -0.65625 C 4.085938 -0.65625 3.570312 -2.042969 3.570312 -3.835938 C 3.570312 -6.675781 3.976562 -7.140625 4.695312 -7.140625 C 5.191406 -7.140625 5.519531 -6.785156 5.519531 -6.347656 C 5.519531 -5.722656 5.144531 -5.566406 5.144531 -5.566406 C 5.144531 -5.566406 6.035156 -4.617188 7.25 -4.617188 C 8.25 -4.617188 8.921875 -5.285156 8.921875 -6.222656 C 8.921875 -7.65625 7.859375 -7.796875 6.878906 -7.796875 C 6.878906 -7.796875 0.46875 -7.796875 0.46875 -7.796875 C 0.46875 -7.796875 1.027344 -7.109375 1.027344 -5.582031 C 1.027344 -3.445312 0.46875 -2.324219 0.46875 -1.324219 Z M 0.46875 -1.324219 "/></g></g></g><g fill="#151f28" fill-opacity="1"><g transform="translate(126.135899, 14.951008)"><g><path d="M 0.46875 -1.699219 C 0.46875 -0.640625 1.277344 0.15625 2.652344 0.15625 C 4.445312 0.15625 5.113281 -0.40625 5.113281 -0.40625 C 5.113281 -0.40625 4.195312 -0.75 4.195312 -1.824219 C 4.195312 -3.398438 5.488281 -4.367188 5.925781 -5.394531 C 5.957031 -3.945312 5.441406 -2.011719 5.441406 -1.199219 C 5.441406 -0.5 5.722656 0 6.660156 0 L 8.96875 0 L 8.96875 -0.140625 C 8.96875 -1.152344 8.5 -1.808594 8.5 -4.570312 C 8.5 -6.425781 7.234375 -7.796875 5.253906 -7.796875 L 3.210938 -7.796875 C 1.308594 -7.796875 0.46875 -6.925781 0.46875 -5.988281 C 0.46875 -5.113281 1.011719 -4.867188 1.667969 -4.867188 C 1.667969 -4.867188 2.667969 -4.867188 3.929688 -5.519531 C 3.929688 -5.957031 3.367188 -7.15625 4.726562 -7.15625 C 5.332031 -7.15625 5.660156 -6.800781 5.800781 -6.269531 C 5.347656 -4.773438 0.46875 -4.617188 0.46875 -1.699219 Z M 0.46875 -1.699219 "/></g></g></g><g fill="#151f28" fill-opacity="1"><g transform="translate(135.569345, 14.951008)"><g><path d="M 3.929688 0 C 3.929688 -3.898438 4.054688 -7.140625 5.503906 -7.140625 C 5.785156 -7.140625 6.050781 -6.800781 6.050781 -6.128906 C 6.050781 -5.378906 5.144531 -5.113281 5.144531 -5.113281 C 5.144531 -5.113281 5.410156 -4.179688 7.109375 -4.179688 C 8.0625 -4.179688 9.074219 -4.601562 9.074219 -6.019531 C 9.074219 -7.578125 7.484375 -7.796875 6.003906 -7.796875 L 5.238281 -7.796875 C 4.601562 -7.796875 4.101562 -7.625 3.695312 -7.375 C 3.554688 -7.578125 3.414062 -7.71875 3.257812 -7.796875 C 3.257812 -7.796875 0.46875 -7.796875 0.46875 -7.796875 C 0.46875 -7.796875 1.074219 -7.15625 1.074219 -5.769531 C 1.074219 -3.789062 0.46875 -2.292969 0.46875 0 Z M 3.929688 0 "/></g></g></g><g fill="#151f28" fill-opacity="1"><g transform="translate(33.804522, 31.346152)"><g><path d="M 2.0625 0.09375 C 1.5625 0.09375 1.191406 -0.0507812 0.953125 -0.34375 C 0.710938 -0.632812 0.570312 -1.070312 0.53125 -1.65625 C 0.519531 -1.789062 0.507812 -1.925781 0.5 -2.0625 C 0.5 -2.195312 0.503906 -2.332031 0.515625 -2.46875 C 0.546875 -3.007812 0.671875 -3.472656 0.890625 -3.859375 C 1.117188 -4.253906 1.519531 -4.617188 2.09375 -4.953125 C 2.3125 -5.078125 2.539062 -5.195312 2.78125 -5.3125 C 3.019531 -5.4375 3.257812 -5.554688 3.5 -5.671875 L 3.5 -7.640625 C 3.5 -7.984375 3.429688 -8.234375 3.296875 -8.390625 C 3.171875 -8.554688 2.9375 -8.640625 2.59375 -8.640625 C 2.300781 -8.640625 2.082031 -8.570312 1.9375 -8.4375 C 1.789062 -8.300781 1.710938 -8.046875 1.703125 -7.671875 C 1.691406 -7.492188 1.6875 -7.253906 1.6875 -6.953125 C 1.6875 -6.648438 1.691406 -6.382812 1.703125 -6.15625 L 0.6875 -6.15625 C 0.675781 -6.351562 0.664062 -6.585938 0.65625 -6.859375 C 0.65625 -7.128906 0.660156 -7.367188 0.671875 -7.578125 C 0.703125 -8.242188 0.863281 -8.722656 1.15625 -9.015625 C 1.457031 -9.316406 1.953125 -9.46875 2.640625 -9.46875 C 3.359375 -9.46875 3.847656 -9.304688 4.109375 -8.984375 C 4.367188 -8.671875 4.507812 -8.160156 4.53125 -7.453125 L 4.515625 0 L 3.5 0 L 3.5 -0.84375 L 3.328125 -0.84375 C 3.210938 -0.539062 3.054688 -0.304688 2.859375 -0.140625 C 2.671875 0.015625 2.40625 0.09375 2.0625 0.09375 Z M 2.421875 -0.703125 C 2.929688 -0.703125 3.289062 -1 3.5 -1.59375 L 3.5 -4.8125 C 3.320312 -4.726562 3.140625 -4.632812 2.953125 -4.53125 C 2.765625 -4.4375 2.550781 -4.300781 2.3125 -4.125 C 2.007812 -3.914062 1.804688 -3.675781 1.703125 -3.40625 C 1.609375 -3.132812 1.554688 -2.820312 1.546875 -2.46875 C 1.535156 -2.363281 1.53125 -2.242188 1.53125 -2.109375 C 1.539062 -1.984375 1.546875 -1.851562 1.546875 -1.71875 C 1.578125 -1.394531 1.664062 -1.144531 1.8125 -0.96875 C 1.96875 -0.789062 2.171875 -0.703125 2.421875 -0.703125 Z M 2.421875 -0.703125 "/></g></g></g><g fill="#151f28" fill-opacity="1"><g transform="translate(39.168331, 31.346152)"><g><path d="M 0.71875 0 L 0.71875 -1.390625 L 2.484375 -1.390625 L 2.484375 0 Z M 0.71875 0 "/></g></g></g><g fill="#151f28" fill-opacity="1"><g transform="translate(42.364787, 31.346152)"><g><path d="M 0.828125 0 L 0.828125 -12.46875 L 1.8125 -12.46875 L 1.8125 -7.703125 L 1.703125 -5.140625 L 1.9375 -5.140625 L 2.5625 -6.890625 L 3.484375 -9.359375 L 4.546875 -9.359375 L 2.96875 -5.46875 L 4.921875 0 L 3.84375 0 L 2.328125 -4.34375 L 1.828125 -3.265625 L 1.828125 0 Z M 0.828125 0 "/></g></g></g><g fill="#151f28" fill-opacity="1"><g transform="translate(47.759781, 31.346152)"><g><path d="M 0.71875 0 L 0.71875 -1.390625 L 2.484375 -1.390625 L 2.484375 0 Z M 0.71875 0 "/></g></g></g><g fill="#151f28" fill-opacity="1"><g transform="translate(50.956237, 31.346152)"><g><path d="M 2.0625 0.09375 C 1.5625 0.09375 1.191406 -0.0507812 0.953125 -0.34375 C 0.710938 -0.632812 0.570312 -1.070312 0.53125 -1.65625 C 0.519531 -1.789062 0.507812 -1.925781 0.5 -2.0625 C 0.5 -2.195312 0.503906 -2.332031 0.515625 -2.46875 C 0.546875 -3.007812 0.671875 -3.472656 0.890625 -3.859375 C 1.117188 -4.253906 1.519531 -4.617188 2.09375 -4.953125 C 2.3125 -5.078125 2.539062 -5.195312 2.78125 -5.3125 C 3.019531 -5.4375 3.257812 -5.554688 3.5 -5.671875 L 3.5 -7.640625 C 3.5 -7.984375 3.429688 -8.234375 3.296875 -8.390625 C 3.171875 -8.554688 2.9375 -8.640625 2.59375 -8.640625 C 2.300781 -8.640625 2.082031 -8.570312 1.9375 -8.4375 C 1.789062 -8.300781 1.710938 -8.046875 1.703125 -7.671875 C 1.691406 -7.492188 1.6875 -7.253906 1.6875 -6.953125 C 1.6875 -6.648438 1.691406 -6.382812 1.703125 -6.15625 L 0.6875 -6.15625 C 0.675781 -6.351562 0.664062 -6.585938 0.65625 -6.859375 C 0.65625 -7.128906 0.660156 -7.367188 0.671875 -7.578125 C 0.703125 -8.242188 0.863281 -8.722656 1.15625 -9.015625 C 1.457031 -9.316406 1.953125 -9.46875 2.640625 -9.46875 C 3.359375 -9.46875 3.847656 -9.304688 4.109375 -8.984375 C 4.367188 -8.671875 4.507812 -8.160156 4.53125 -7.453125 L 4.515625 0 L 3.5 0 L 3.5 -0.84375 L 3.328125 -0.84375 C 3.210938 -0.539062 3.054688 -0.304688 2.859375 -0.140625 C 2.671875 0.015625 2.40625 0.09375 2.0625 0.09375 Z M 2.421875 -0.703125 C 2.929688 -0.703125 3.289062 -1 3.5 -1.59375 L 3.5 -4.8125 C 3.320312 -4.726562 3.140625 -4.632812 2.953125 -4.53125 C 2.765625 -4.4375 2.550781 -4.300781 2.3125 -4.125 C 2.007812 -3.914062 1.804688 -3.675781 1.703125 -3.40625 C 1.609375 -3.132812 1.554688 -2.820312 1.546875 -2.46875 C 1.535156 -2.363281 1.53125 -2.242188 1.53125 -2.109375 C 1.539062 -1.984375 1.546875 -1.851562 1.546875 -1.71875 C 1.578125 -1.394531 1.664062 -1.144531 1.8125 -0.96875 C 1.96875 -0.789062 2.171875 -0.703125 2.421875 -0.703125 Z M 2.421875 -0.703125 "/></g></g></g><g fill="#151f28" fill-opacity="1"><g transform="translate(56.320046, 31.346152)"><g><path d="M 0.71875 0 L 0.71875 -1.390625 L 2.484375 -1.390625 L 2.484375 0 Z M 0.71875 0 "/></g></g></g><g fill="#151f28" fill-opacity="1"><g transform="translate(59.516502, 31.346152)"><g/></g></g><g fill="#151f28" fill-opacity="1"><g transform="translate(62.744141, 31.346152)"><g><path d="M 0.828125 0 L 0.828125 -9.359375 L 1.859375 -9.359375 L 1.859375 -8.46875 L 2.078125 -8.46875 C 2.160156 -8.8125 2.296875 -9.046875 2.484375 -9.171875 C 2.679688 -9.304688 2.941406 -9.375 3.265625 -9.375 C 3.460938 -9.375 3.625 -9.367188 3.75 -9.359375 L 3.75 -8.53125 L 3.28125 -8.53125 C 2.832031 -8.53125 2.503906 -8.445312 2.296875 -8.28125 C 2.085938 -8.125 1.941406 -7.863281 1.859375 -7.5 L 1.859375 0 Z M 0.828125 0 "/></g></g></g><g fill="#151f28" fill-opacity="1"><g transform="translate(66.798182, 31.346152)"><g><path d="M 3.8125 -3.21875 L 4.796875 -3.21875 C 4.804688 -2.976562 4.8125 -2.726562 4.8125 -2.46875 C 4.820312 -2.21875 4.820312 -1.988281 4.8125 -1.78125 C 4.78125 -1.113281 4.617188 -0.628906 4.328125 -0.328125 C 4.046875 -0.0351562 3.566406 0.109375 2.890625 0.109375 C 2.179688 0.109375 1.671875 -0.0351562 1.359375 -0.328125 C 1.046875 -0.628906 0.878906 -1.113281 0.859375 -1.78125 C 0.835938 -2.34375 0.820312 -2.960938 0.8125 -3.640625 C 0.8125 -4.316406 0.8125 -4.992188 0.8125 -5.671875 C 0.820312 -6.347656 0.835938 -6.972656 0.859375 -7.546875 C 0.890625 -8.234375 1.0625 -8.722656 1.375 -9.015625 C 1.6875 -9.316406 2.1875 -9.46875 2.875 -9.46875 C 3.539062 -9.46875 4.019531 -9.320312 4.3125 -9.03125 C 4.613281 -8.738281 4.78125 -8.253906 4.8125 -7.578125 C 4.820312 -7.335938 4.828125 -6.929688 4.828125 -6.359375 C 4.835938 -5.796875 4.828125 -5.160156 4.796875 -4.453125 L 1.875 -4.453125 C 1.875 -4.023438 1.875 -3.585938 1.875 -3.140625 C 1.882812 -2.703125 1.894531 -2.222656 1.90625 -1.703125 C 1.90625 -1.328125 1.976562 -1.066406 2.125 -0.921875 C 2.28125 -0.785156 2.523438 -0.71875 2.859375 -0.71875 C 3.191406 -0.71875 3.425781 -0.785156 3.5625 -0.921875 C 3.707031 -1.066406 3.789062 -1.328125 3.8125 -1.703125 C 3.820312 -2.085938 3.820312 -2.59375 3.8125 -3.21875 Z M 2.875 -8.640625 C 2.53125 -8.640625 2.28125 -8.5625 2.125 -8.40625 C 1.976562 -8.257812 1.90625 -8.015625 1.90625 -7.671875 C 1.894531 -7.210938 1.882812 -6.789062 1.875 -6.40625 C 1.875 -6.019531 1.875 -5.640625 1.875 -5.265625 L 3.828125 -5.265625 C 3.828125 -5.816406 3.828125 -6.300781 3.828125 -6.71875 C 3.828125 -7.144531 3.820312 -7.460938 3.8125 -7.671875 C 3.789062 -8.015625 3.707031 -8.257812 3.5625 -8.40625 C 3.414062 -8.5625 3.1875 -8.640625 2.875 -8.640625 Z M 2.875 -8.640625 "/></g></g></g><g fill="#151f28" fill-opacity="1"><g transform="translate(72.302324, 31.346152)"><g><path d="M 0.828125 0 L 0.828125 -9.359375 L 1.859375 -9.359375 L 1.859375 -8.53125 L 2.09375 -8.53125 C 2.226562 -8.820312 2.398438 -9.050781 2.609375 -9.21875 C 2.828125 -9.382812 3.109375 -9.46875 3.453125 -9.46875 C 3.929688 -9.46875 4.296875 -9.320312 4.546875 -9.03125 C 4.796875 -8.75 4.921875 -8.273438 4.921875 -7.609375 L 4.921875 0 L 3.90625 0 L 3.90625 -7.6875 C 3.894531 -8.03125 3.828125 -8.273438 3.703125 -8.421875 C 3.578125 -8.578125 3.375 -8.65625 3.09375 -8.65625 C 2.820312 -8.65625 2.570312 -8.570312 2.34375 -8.40625 C 2.125 -8.238281 1.960938 -8.003906 1.859375 -7.703125 L 1.859375 0 Z M 0.828125 0 "/></g></g></g><g fill="#151f28" fill-opacity="1"><g transform="translate(78.087131, 31.346152)"><g><path d="M 3.28125 0.109375 C 2.550781 0.109375 2.050781 -0.0351562 1.78125 -0.328125 C 1.507812 -0.628906 1.367188 -1.117188 1.359375 -1.796875 L 1.359375 -8.53125 L 0.71875 -8.53125 L 0.71875 -9.359375 L 1.375 -9.359375 L 1.375 -12 L 2.4375 -12 L 2.421875 -9.359375 L 3.8125 -9.359375 L 3.8125 -8.53125 L 2.40625 -8.53125 L 2.40625 -1.703125 C 2.40625 -1.316406 2.457031 -1.054688 2.5625 -0.921875 C 2.664062 -0.785156 2.910156 -0.71875 3.296875 -0.71875 C 3.441406 -0.71875 3.5625 -0.71875 3.65625 -0.71875 C 3.75 -0.726562 3.847656 -0.742188 3.953125 -0.765625 L 3.953125 0.03125 C 3.765625 0.0820312 3.539062 0.109375 3.28125 0.109375 Z M 3.28125 0.109375 "/></g></g></g><g fill="#151f28" fill-opacity="1"><g transform="translate(82.515391, 31.346152)"><g><path d="M 2.90625 0.109375 C 2.175781 0.109375 1.660156 -0.046875 1.359375 -0.359375 C 1.066406 -0.671875 0.90625 -1.191406 0.875 -1.921875 C 0.851562 -2.484375 0.835938 -3.078125 0.828125 -3.703125 C 0.828125 -4.335938 0.828125 -4.972656 0.828125 -5.609375 C 0.835938 -6.253906 0.851562 -6.863281 0.875 -7.4375 C 0.90625 -8.164062 1.066406 -8.6875 1.359375 -9 C 1.660156 -9.3125 2.175781 -9.46875 2.90625 -9.46875 C 3.625 -9.46875 4.128906 -9.304688 4.421875 -8.984375 C 4.710938 -8.671875 4.875 -8.15625 4.90625 -7.4375 C 4.9375 -6.59375 4.953125 -5.675781 4.953125 -4.6875 C 4.953125 -3.695312 4.9375 -2.773438 4.90625 -1.921875 C 4.875 -1.203125 4.710938 -0.679688 4.421875 -0.359375 C 4.128906 -0.046875 3.625 0.109375 2.90625 0.109375 Z M 2.90625 -0.71875 C 3.25 -0.71875 3.492188 -0.789062 3.640625 -0.9375 C 3.796875 -1.082031 3.878906 -1.335938 3.890625 -1.703125 C 3.898438 -2.441406 3.90625 -3.117188 3.90625 -3.734375 C 3.914062 -4.359375 3.914062 -4.984375 3.90625 -5.609375 C 3.90625 -6.234375 3.898438 -6.910156 3.890625 -7.640625 C 3.878906 -8.015625 3.800781 -8.273438 3.65625 -8.421875 C 3.507812 -8.566406 3.257812 -8.640625 2.90625 -8.640625 C 2.550781 -8.640625 2.296875 -8.566406 2.140625 -8.421875 C 1.992188 -8.273438 1.914062 -8.015625 1.90625 -7.640625 C 1.882812 -6.910156 1.867188 -6.234375 1.859375 -5.609375 C 1.847656 -4.984375 1.847656 -4.359375 1.859375 -3.734375 C 1.867188 -3.117188 1.882812 -2.441406 1.90625 -1.703125 C 1.914062 -1.335938 1.992188 -1.082031 2.140625 -0.9375 C 2.296875 -0.789062 2.550781 -0.71875 2.90625 -0.71875 Z M 2.90625 -0.71875 "/></g></g></g><g fill="#151f28" fill-opacity="1"><g transform="translate(88.300198, 31.346152)"><g><path d="M 0.828125 0 L 0.828125 -9.359375 L 1.859375 -9.359375 L 1.859375 -8.53125 L 2.09375 -8.53125 C 2.226562 -8.820312 2.398438 -9.050781 2.609375 -9.21875 C 2.828125 -9.382812 3.109375 -9.46875 3.453125 -9.46875 C 3.929688 -9.46875 4.296875 -9.320312 4.546875 -9.03125 C 4.796875 -8.75 4.921875 -8.273438 4.921875 -7.609375 L 4.921875 0 L 3.90625 0 L 3.90625 -7.6875 C 3.894531 -8.03125 3.828125 -8.273438 3.703125 -8.421875 C 3.578125 -8.578125 3.375 -8.65625 3.09375 -8.65625 C 2.820312 -8.65625 2.570312 -8.570312 2.34375 -8.40625 C 2.125 -8.238281 1.960938 -8.003906 1.859375 -7.703125 L 1.859375 0 Z M 0.828125 0 "/></g></g></g><g fill="#151f28" fill-opacity="1"><g transform="translate(94.085005, 31.346152)"><g><path d="M 0.828125 0 L 0.828125 -12.46875 L 1.859375 -12.46875 L 1.859375 -8.53125 L 2.09375 -8.53125 C 2.238281 -8.84375 2.410156 -9.078125 2.609375 -9.234375 C 2.816406 -9.390625 3.097656 -9.46875 3.453125 -9.46875 C 3.929688 -9.46875 4.296875 -9.320312 4.546875 -9.03125 C 4.796875 -8.75 4.921875 -8.273438 4.921875 -7.609375 L 4.921875 0 L 3.90625 0 L 3.90625 -7.6875 C 3.894531 -8.03125 3.828125 -8.273438 3.703125 -8.421875 C 3.578125 -8.578125 3.375 -8.65625 3.09375 -8.65625 C 2.46875 -8.65625 2.054688 -8.335938 1.859375 -7.703125 L 1.859375 0 Z M 0.828125 0 "/></g></g></g><g fill="#151f28" fill-opacity="1"><g transform="translate(99.713885, 31.346152)"><g><path d="M 3.8125 -3.21875 L 4.796875 -3.21875 C 4.804688 -2.976562 4.8125 -2.726562 4.8125 -2.46875 C 4.820312 -2.21875 4.820312 -1.988281 4.8125 -1.78125 C 4.78125 -1.113281 4.617188 -0.628906 4.328125 -0.328125 C 4.046875 -0.0351562 3.566406 0.109375 2.890625 0.109375 C 2.179688 0.109375 1.671875 -0.0351562 1.359375 -0.328125 C 1.046875 -0.628906 0.878906 -1.113281 0.859375 -1.78125 C 0.835938 -2.34375 0.820312 -2.960938 0.8125 -3.640625 C 0.8125 -4.316406 0.8125 -4.992188 0.8125 -5.671875 C 0.820312 -6.347656 0.835938 -6.972656 0.859375 -7.546875 C 0.890625 -8.234375 1.0625 -8.722656 1.375 -9.015625 C 1.6875 -9.316406 2.1875 -9.46875 2.875 -9.46875 C 3.539062 -9.46875 4.019531 -9.320312 4.3125 -9.03125 C 4.613281 -8.738281 4.78125 -8.253906 4.8125 -7.578125 C 4.820312 -7.335938 4.828125 -6.929688 4.828125 -6.359375 C 4.835938 -5.796875 4.828125 -5.160156 4.796875 -4.453125 L 1.875 -4.453125 C 1.875 -4.023438 1.875 -3.585938 1.875 -3.140625 C 1.882812 -2.703125 1.894531 -2.222656 1.90625 -1.703125 C 1.90625 -1.328125 1.976562 -1.066406 2.125 -0.921875 C 2.28125 -0.785156 2.523438 -0.71875 2.859375 -0.71875 C 3.191406 -0.71875 3.425781 -0.785156 3.5625 -0.921875 C 3.707031 -1.066406 3.789062 -1.328125 3.8125 -1.703125 C 3.820312 -2.085938 3.820312 -2.59375 3.8125 -3.21875 Z M 2.875 -8.640625 C 2.53125 -8.640625 2.28125 -8.5625 2.125 -8.40625 C 1.976562 -8.257812 1.90625 -8.015625 1.90625 -7.671875 C 1.894531 -7.210938 1.882812 -6.789062 1.875 -6.40625 C 1.875 -6.019531 1.875 -5.640625 1.875 -5.265625 L 3.828125 -5.265625 C 3.828125 -5.816406 3.828125 -6.300781 3.828125 -6.71875 C 3.828125 -7.144531 3.820312 -7.460938 3.8125 -7.671875 C 3.789062 -8.015625 3.707031 -8.257812 3.5625 -8.40625 C 3.414062 -8.5625 3.1875 -8.640625 2.875 -8.640625 Z M 2.875 -8.640625 "/></g></g></g><g fill="#151f28" fill-opacity="1"><g transform="translate(105.218031, 31.346152)"><g><path d="M 2.0625 0.09375 C 1.5625 0.09375 1.191406 -0.0507812 0.953125 -0.34375 C 0.710938 -0.632812 0.570312 -1.070312 0.53125 -1.65625 C 0.519531 -1.789062 0.507812 -1.925781 0.5 -2.0625 C 0.5 -2.195312 0.503906 -2.332031 0.515625 -2.46875 C 0.546875 -3.007812 0.671875 -3.472656 0.890625 -3.859375 C 1.117188 -4.253906 1.519531 -4.617188 2.09375 -4.953125 C 2.3125 -5.078125 2.539062 -5.195312 2.78125 -5.3125 C 3.019531 -5.4375 3.257812 -5.554688 3.5 -5.671875 L 3.5 -7.640625 C 3.5 -7.984375 3.429688 -8.234375 3.296875 -8.390625 C 3.171875 -8.554688 2.9375 -8.640625 2.59375 -8.640625 C 2.300781 -8.640625 2.082031 -8.570312 1.9375 -8.4375 C 1.789062 -8.300781 1.710938 -8.046875 1.703125 -7.671875 C 1.691406 -7.492188 1.6875 -7.253906 1.6875 -6.953125 C 1.6875 -6.648438 1.691406 -6.382812 1.703125 -6.15625 L 0.6875 -6.15625 C 0.675781 -6.351562 0.664062 -6.585938 0.65625 -6.859375 C 0.65625 -7.128906 0.660156 -7.367188 0.671875 -7.578125 C 0.703125 -8.242188 0.863281 -8.722656 1.15625 -9.015625 C 1.457031 -9.316406 1.953125 -9.46875 2.640625 -9.46875 C 3.359375 -9.46875 3.847656 -9.304688 4.109375 -8.984375 C 4.367188 -8.671875 4.507812 -8.160156 4.53125 -7.453125 L 4.515625 0 L 3.5 0 L 3.5 -0.84375 L 3.328125 -0.84375 C 3.210938 -0.539062 3.054688 -0.304688 2.859375 -0.140625 C 2.671875 0.015625 2.40625 0.09375 2.0625 0.09375 Z M 2.421875 -0.703125 C 2.929688 -0.703125 3.289062 -1 3.5 -1.59375 L 3.5 -4.8125 C 3.320312 -4.726562 3.140625 -4.632812 2.953125 -4.53125 C 2.765625 -4.4375 2.550781 -4.300781 2.3125 -4.125 C 2.007812 -3.914062 1.804688 -3.675781 1.703125 -3.40625 C 1.609375 -3.132812 1.554688 -2.820312 1.546875 -2.46875 C 1.535156 -2.363281 1.53125 -2.242188 1.53125 -2.109375 C 1.539062 -1.984375 1.546875 -1.851562 1.546875 -1.71875 C 1.578125 -1.394531 1.664062 -1.144531 1.8125 -0.96875 C 1.96875 -0.789062 2.171875 -0.703125 2.421875 -0.703125 Z M 2.421875 -0.703125 "/></g></g></g><g fill="#151f28" fill-opacity="1"><g transform="translate(110.581843, 31.346152)"><g><path d="M 3.765625 -12.46875 L 4.78125 -12.46875 L 4.78125 0 L 3.765625 0 L 3.765625 -0.828125 L 3.5625 -0.828125 C 3.40625 -0.523438 3.222656 -0.289062 3.015625 -0.125 C 2.816406 0.03125 2.539062 0.109375 2.1875 0.109375 C 1.6875 0.109375 1.316406 -0.03125 1.078125 -0.3125 C 0.835938 -0.601562 0.707031 -1.082031 0.6875 -1.75 C 0.664062 -2.644531 0.65625 -3.597656 0.65625 -4.609375 C 0.65625 -5.617188 0.664062 -6.617188 0.6875 -7.609375 C 0.707031 -8.273438 0.84375 -8.75 1.09375 -9.03125 C 1.34375 -9.320312 1.710938 -9.46875 2.203125 -9.46875 C 2.566406 -9.46875 2.847656 -9.390625 3.046875 -9.234375 C 3.242188 -9.078125 3.421875 -8.84375 3.578125 -8.53125 L 3.765625 -8.53125 Z M 2.53125 -0.703125 C 3.144531 -0.703125 3.554688 -1.019531 3.765625 -1.65625 L 3.765625 -7.703125 C 3.660156 -8.035156 3.5 -8.273438 3.28125 -8.421875 C 3.070312 -8.578125 2.820312 -8.65625 2.53125 -8.65625 C 2.257812 -8.65625 2.0625 -8.578125 1.9375 -8.421875 C 1.8125 -8.273438 1.742188 -8.03125 1.734375 -7.6875 C 1.679688 -5.53125 1.679688 -3.523438 1.734375 -1.671875 C 1.742188 -1.328125 1.804688 -1.078125 1.921875 -0.921875 C 2.046875 -0.773438 2.25 -0.703125 2.53125 -0.703125 Z M 2.53125 -0.703125 "/></g></g></g></svg>